<?xml version="1.0" encoding="UTF-8"?>
<svg version="1.1" xmlns="http://www.w3.org/2000/svg" width="1655" height="1620">
<path d="M0 0 C3.95478251 2.91900614 7.41112181 6.50974362 9.625 10.9375 C17.23385777 61.6632185 1.91294686 121.01877068 -28.41796875 162.12109375 C-32.41340123 167.37234524 -36.8310818 172.15568033 -41.375 176.9375 C-42.59027255 178.34821844 -43.79920605 179.76443719 -45 181.1875 C-48.48888262 185.17594548 -52.2793513 188.58226988 -56.375 191.9375 C-57.37273438 192.76121094 -58.37046875 193.58492187 -59.3984375 194.43359375 C-115.67001368 240.19035796 -189.51901531 254.44482004 -259.78027344 262.37744141 C-260.64957489 262.47563675 -261.51887634 262.57383209 -262.41452026 262.67500305 C-264.04227125 262.85752439 -265.67028951 263.03768412 -267.2986145 263.2150116 C-271.03469694 263.62976192 -274.70415703 264.12089876 -278.375 264.9375 C-246.61739027 269.99981844 -246.61739027 269.99981844 -214.6875 273.75 C-213.45362549 273.86931885 -212.21975098 273.9886377 -210.94848633 274.11157227 C-203.87703325 274.73302111 -196.89868798 274.9950973 -189.8046875 275.02734375 C-164.50471959 275.25250719 -164.50471959 275.25250719 -159.15234375 279.5546875 C-156.54020504 282.52253098 -154.99034719 285.85116186 -153.48046875 289.47949219 C-152.23312894 292.25295006 -150.73467146 294.74064061 -149.125 297.3203125 C-119.49039718 344.92457641 -105.71622184 398.29444042 -97.5078125 453.1953125 C-97.3812175 454.03799116 -97.2546225 454.88066982 -97.12419128 455.7488842 C-93.73686512 478.4156958 -91.15502613 501.17770684 -88.53643799 523.94342041 C-86.06462325 545.41912057 -83.53406862 566.86639574 -80.2421875 588.234375 C-80.06241615 589.40762927 -80.06241615 589.40762927 -79.87901306 590.60458565 C-70.72003516 649.98677716 -54.02443326 708.70140627 -11.375 752.9375 C-10.611875 753.76378906 -9.84875 754.59007812 -9.0625 755.44140625 C54.43644934 822.26546949 162.63848738 824.38260487 251.90353584 831.00069046 C258.01937848 831.45407825 264.13479791 831.9130594 270.25 832.375 C270.91490322 832.42511734 271.57980644 832.47523468 272.26485825 832.52687073 C295.77274429 834.30332287 319.16113386 836.72833254 342.546875 839.703125 C343.41651886 839.81332474 344.28616272 839.92352448 345.18215942 840.0370636 C346.37734695 840.19322395 346.37734695 840.19322395 347.59667969 840.35253906 C348.28300476 840.44182678 348.96932983 840.5311145 349.67645264 840.62310791 C351.69717558 840.94914531 353.64726355 841.41321997 355.625 841.9375 C354.96213708 848.85738715 352.83361306 855.26640001 350.75 861.875 C350.55281372 862.50320648 350.35562744 863.13141296 350.15246582 863.77865601 C332.21352114 920.85736015 309.05137569 976.3190609 278.625 1027.9375 C278.11630371 1028.80503906 277.60760742 1029.67257812 277.08349609 1030.56640625 C259.01509069 1061.30846654 239.00168263 1091.1566661 216.625 1118.9375 C216.109375 1119.57929199 215.59375 1120.22108398 215.0625 1120.88232422 C205.53450412 1132.72647054 195.87894588 1144.44425287 185.65234375 1155.6953125 C183.88532801 1157.64958424 182.15586471 1159.62809737 180.4375 1161.625 C170.63805902 1172.81177757 160.25014971 1183.41415803 149.75 1193.9375 C149.21038635 1194.47970184 148.67077271 1195.02190369 148.11480713 1195.58053589 C142.68968579 1201.02616555 137.2516463 1206.40555992 131.40429688 1211.40332031 C128.45415103 1213.947052 125.64561605 1216.64011942 122.8125 1219.3125 C117.81954716 1223.98433901 112.71931243 1228.43550315 107.37890625 1232.7109375 C104.91310273 1234.70456588 102.49908679 1236.74776579 100.09594727 1238.81616211 C92.50556629 1245.33829305 84.59496217 1251.39586239 76.61181641 1257.42675781 C74.84806058 1258.76788844 73.09794725 1260.12360115 71.35546875 1261.4921875 C38.12489518 1287.5135609 1.58021952 1309.66193024 -35.61914062 1329.46337891 C-38.07305469 1330.77598815 -40.51499758 1332.10760081 -42.953125 1333.44921875 C-63.53733656 1344.67843934 -85.25646874 1353.92962554 -106.865448 1362.98864746 C-108.36287508 1363.61746127 -109.85861424 1364.25031095 -111.35256958 1364.8873291 C-113.43281642 1365.77176838 -115.51961001 1366.63833554 -117.609375 1367.5 C-118.79756836 1367.99628906 -119.98576172 1368.49257812 -121.20996094 1369.00390625 C-124.5456616 1369.98784017 -126.1304327 1370.09497007 -129.375 1368.9375 C-131.49383472 1367.13331513 -133.35187717 1365.38520593 -135.25 1363.375 C-135.78246338 1362.82634277 -136.31492676 1362.27768555 -136.86352539 1361.71240234 C-140.1558692 1358.29607486 -143.33650094 1354.79833263 -146.41015625 1351.18359375 C-148.56506004 1348.72023455 -150.79339595 1346.33767412 -153.03393555 1343.95239258 C-158.28942033 1338.35596299 -163.34735822 1332.68839073 -168.1484375 1326.69140625 C-170.14188471 1324.22582681 -172.18483858 1321.81199322 -174.25317383 1319.40917969 C-180.74103194 1311.85790864 -186.79056394 1304.00432348 -192.77832031 1296.05322266 C-194.27919486 1294.06444913 -195.79022729 1292.08390543 -197.3046875 1290.10546875 C-210.09088909 1273.33184563 -222.1002346 1255.96749006 -233.11914062 1237.98242188 C-234.3009714 1236.05804113 -235.50043396 1234.14575746 -236.703125 1232.234375 C-237.35796875 1231.16703125 -238.0128125 1230.0996875 -238.6875 1229 C-239.24050781 1228.10410156 -239.79351563 1227.20820312 -240.36328125 1226.28515625 C-241.56327629 1223.50061178 -241.40484405 1222.72677157 -240.375 1219.9375 C-239.01831055 1218.33203125 -239.01831055 1218.33203125 -237.26171875 1216.75 C-236.60026855 1216.14349609 -235.93881836 1215.53699219 -235.25732422 1214.91210938 C-234.53303223 1214.26048828 -233.80874023 1213.60886719 -233.0625 1212.9375 C-226.14781681 1206.5758126 -219.39316471 1200.08252156 -212.75 1193.4375 C-211.92201904 1192.61378906 -211.09403809 1191.79007813 -210.2409668 1190.94140625 C-205.41304662 1186.10319409 -200.78674446 1181.15806428 -196.375 1175.9375 C-195.64603516 1175.07656738 -195.64603516 1175.07656738 -194.90234375 1174.19824219 C-178.11209378 1154.12647237 -149.375 1118.29605996 -149.375 1090.9375 C-149.88546875 1091.56914063 -150.3959375 1092.20078125 -150.921875 1092.8515625 C-163.94629205 1108.87806149 -177.55004272 1124.17841511 -192.125 1138.8125 C-192.91720947 1139.60938232 -193.70941895 1140.40626465 -194.52563477 1141.22729492 C-199.31389281 1146.00252914 -204.21898939 1150.56266386 -209.375 1154.9375 C-210.01115234 1155.48035645 -210.64730469 1156.02321289 -211.30273438 1156.58251953 C-238.90188634 1179.97787317 -269.70213152 1198.14171695 -300.87109375 1216.30859375 C-314.53214828 1224.27418645 -328.1233232 1232.29976735 -341.375 1240.9375 C-342.11717773 1241.41993164 -342.85935547 1241.90236328 -343.62402344 1242.39941406 C-352.21211678 1248.00066515 -360.66650712 1253.77626602 -369 1259.75 C-369.72195557 1260.2648999 -370.44391113 1260.7797998 -371.18774414 1261.31030273 C-385.73775422 1271.84709985 -395.52328705 1283.82154261 -398.95288086 1301.90332031 C-399.7453189 1307.59934113 -399.90677474 1313.34133243 -400.15103149 1319.08172607 C-401.16417872 1341.91830823 -402.49361066 1366.23828787 -420.3125 1382.75 C-427.15875917 1388.86948006 -434.57103525 1389.65113734 -443.41796875 1389.34765625 C-450.62318223 1388.60081774 -455.84396848 1385.85092708 -460.875 1380.6875 C-465.55672809 1374.41218037 -465.72562763 1366.04041968 -466.41015625 1358.46875 C-466.53553017 1357.14997864 -466.53553017 1357.14997864 -466.66343689 1355.80456543 C-466.83830195 1353.95264555 -467.01042825 1352.1004652 -467.17993164 1350.24804688 C-467.43433869 1347.47199577 -467.69786007 1344.69692981 -467.96289062 1341.921875 C-472.29084419 1296.017754 -473.09514435 1249.44775321 -450.375 1207.9375 C-449.88257813 1207.02613281 -449.39015625 1206.11476563 -448.8828125 1205.17578125 C-439.25233094 1188.28163139 -425.07711293 1174.52270409 -411.37158203 1160.94848633 C-407.49820184 1157.09950435 -403.90150247 1153.10185219 -400.375 1148.9375 C-399.08916016 1147.46796875 -399.08916016 1147.46796875 -397.77734375 1145.96875 C-380.035216 1125.65230948 -363.81779366 1103.9373497 -351.375 1079.9375 C-351.03807129 1079.29490234 -350.70114258 1078.65230469 -350.35400391 1077.99023438 C-332.63834448 1043.76083795 -329.49373934 1009.27739602 -332.16113281 971.50537109 C-332.45248865 966.64478414 -332.4678016 961.80442861 -332.375 956.9375 C-333.26316406 956.72198486 -334.15132812 956.50646973 -335.06640625 956.28442383 C-343.18198135 954.28777534 -351.25644598 952.17414909 -359.3125 949.94921875 C-400.60831492 938.55326369 -441.33088846 928.41307504 -484.3671875 927.40234375 C-486.11988751 927.35910618 -487.87258315 927.31569084 -489.62527466 927.27210999 C-493.3015625 927.18155963 -496.97790197 927.09365813 -500.65429688 927.00756836 C-504.33831739 926.92108449 -508.02221689 926.83100433 -511.70605469 926.73706055 C-536.93403985 926.09375874 -562.13885312 925.80359974 -587.375 925.9375 C-587.04886719 925.28265625 -586.72273437 924.6278125 -586.38671875 923.953125 C-580.34425625 911.33346881 -578.70360725 898.83899371 -577.3671875 885.09765625 C-577.1953453 883.40034134 -577.02265103 881.7031125 -576.84915161 880.00596619 C-576.39812321 875.57494477 -575.95713542 871.14298611 -575.51879883 866.71069336 C-574.81305457 859.5936375 -574.09116415 852.47819765 -573.37051773 845.36263847 C-573.12118919 842.8873838 -572.87577229 840.41176652 -572.631073 837.93605042 C-572.47920571 836.41837988 -572.32728207 834.90071498 -572.17529297 833.38305664 C-572.10879547 832.69987869 -572.04229797 832.01670074 -571.9737854 831.31282043 C-571.61952816 827.80384426 -571.13673924 824.38180637 -570.375 820.9375 C-562.00695799 820.73935522 -553.85237975 821.3472691 -545.53515625 822.23046875 C-544.14282567 822.3745332 -542.75045455 822.51820628 -541.35804749 822.66152954 C-537.52646348 823.05780868 -533.69576323 823.46210684 -529.86521149 823.86822891 C-527.42080144 824.12676615 -524.97615969 824.38299356 -522.53143311 824.63851929 C-485.050353 828.55860974 -447.60263648 832.78858594 -410.15739155 837.03536701 C-404.12852268 837.7189829 -398.09944785 838.40077016 -392.0703125 839.08203125 C-390.92324514 839.21182814 -389.77617779 839.34162502 -388.59435081 839.47535515 C-373.6637294 841.16201383 -358.73080825 842.76932443 -343.76370239 844.0983429 C-342.6581601 844.19826035 -341.5526178 844.2981778 -340.41357422 844.40112305 C-339.00747391 844.52272041 -339.00747391 844.52272041 -337.57296753 844.64677429 C-335.375 844.9375 -335.375 844.9375 -333.375 845.9375 C-333.38877686 845.00719971 -333.40255371 844.07689941 -333.41674805 843.1184082 C-333.56135329 828.21640215 -332.89886844 813.34052083 -332.28343964 798.45504379 C-332.18636708 796.0974853 -332.09080113 793.73987011 -331.9956665 791.38223267 C-330.51594293 754.75931859 -328.80800831 718.14627822 -327.08911133 681.53393555 C-326.58421228 670.77359527 -326.09186118 660.01274618 -325.61288452 649.2512207 C-325.47172058 646.07978454 -325.32756995 642.90854763 -325.1769104 639.73754883 C-323.92860559 613.0119372 -324.25987676 586.2422862 -324.30633545 559.49505615 C-324.31670984 552.87691543 -324.32116281 546.25877157 -324.32617188 539.640625 C-324.33677992 526.73957336 -324.35356192 513.83853797 -324.375 500.9375 C-325.15853851 500.6253656 -325.94207703 500.3132312 -326.74935913 499.99163818 C-328.97046447 499.09991229 -331.162429 498.16967066 -333.3515625 497.203125 C-357.82233201 486.53597108 -382.77757447 479.7493806 -409.62109375 479.8046875 C-411.19698021 479.80325241 -411.19698021 479.80325241 -412.80470276 479.80178833 C-415.01913513 479.80111149 -417.23356955 479.80293094 -419.44799805 479.80712891 C-422.77202017 479.81243538 -426.09590416 479.80719208 -429.41992188 479.80078125 C-438.84531454 479.79796295 -448.2393042 479.84515917 -457.6484375 480.4296875 C-469.32304107 481.14825413 -481.00401097 481.1599462 -492.69750977 481.17773438 C-496.53879459 481.1874401 -500.37954288 481.21857746 -504.22070312 481.25 C-532.06966127 481.36937663 -562.36284796 480.93800324 -583.625 460.375 C-600.18208012 443.50074465 -605.52228783 419.9569569 -605.8125 397 C-605.83481689 395.94578857 -605.85713379 394.89157715 -605.88012695 393.80541992 C-605.85185792 384.15804054 -603.18481137 376.98305515 -596.49707031 369.97583008 C-589.60502212 363.35575295 -581.08720409 359.00806446 -572.625 354.75 C-570.39099541 353.60728834 -568.1579381 352.46272306 -565.92578125 351.31640625 C-564.81799316 350.74809082 -563.71020508 350.17977539 -562.56884766 349.59423828 C-557.94435485 347.19538427 -553.37564743 344.70059395 -548.8125 342.1875 C-539.79286002 337.23019787 -530.71904239 332.38137148 -521.625 327.5625 C-509.83668937 321.31524537 -509.83668937 321.31524537 -498.07421875 315.01953125 C-496.93823242 314.40891846 -495.80224609 313.79830566 -494.63183594 313.16918945 C-492.44455821 311.9869076 -490.26148264 310.79681333 -488.08300781 309.59838867 C-483.71341257 307.2031289 -479.41846501 304.87588799 -474.78515625 303.03125 C-463.89936687 298.55025466 -461.02165168 291.71948849 -456.62890625 281.2109375 C-456.2539502 280.30827148 -455.87899414 279.40560547 -455.49267578 278.47558594 C-445.01530804 254.68294394 -423.58015395 236.43101341 -399.71508789 227.08935547 C-373.37713866 217.49582386 -342.07955115 213.52734954 -314.12109375 214.0078125 C-298.37370045 214.86184164 -298.37370045 214.86184164 -284.9375 208.0625 C-283.49981374 206.56714992 -282.12525424 205.04067392 -280.77636719 203.46484375 C-278.33278218 200.80159151 -275.44236363 198.72906131 -272.5625 196.5625 C-271.38725448 195.6510985 -270.21410206 194.7369921 -269.04296875 193.8203125 C-268.44661621 193.35399414 -267.85026367 192.88767578 -267.23583984 192.40722656 C-263.91899179 189.78751713 -260.64879933 187.11066355 -257.375 184.4375 C-250.67512898 178.97209087 -243.90714327 173.60193476 -237.09277344 168.28027344 C-234.18228372 166.00516067 -231.27905504 163.7208163 -228.375 161.4375 C-227.20836721 160.52079022 -226.04170056 159.60412352 -224.875 158.6875 C-224.2975 158.23375 -223.72 157.78 -223.125 157.3125 C-221.375 155.9375 -219.625 154.5625 -217.875 153.1875 C-217.29782227 152.7339917 -216.72064453 152.2804834 -216.12597656 151.81323242 C-214.95609984 150.89406687 -213.78617777 149.97495905 -212.61621094 149.0559082 C-209.74828843 146.80293906 -206.8810901 144.54906277 -204.015625 142.29296875 C-191.3290289 132.30775692 -178.58760939 122.39364458 -165.78125 112.5625 C-161.63258632 109.37122025 -157.50467519 106.153287 -153.375 102.9375 C-147.18840107 98.11998203 -140.98558922 93.32515077 -134.765625 88.55078125 C-130.7046187 85.427024 -126.66624683 82.27424639 -122.625 79.125 C-114.55749308 72.84049498 -106.44182656 66.62104012 -98.31201172 60.41748047 C-93.32215675 56.60496461 -88.35029632 52.7689782 -83.375 48.9375 C-81.20855349 47.27054708 -79.04177503 45.60402587 -76.875 43.9375 C-75.79166062 43.10417453 -74.70832728 42.2708412 -73.625 41.4375 C-67.125 36.4375 -60.625 31.4375 -54.125 26.4375 C-53.320625 25.81862915 -53.320625 25.81862915 -52.5 25.18725586 C-51.4169812 24.35432719 -50.3336479 23.5218073 -49.25 22.68969727 C-46.53412318 20.60341749 -43.82414388 18.51023886 -41.125 16.40234375 C-14.29380888 -4.4999028 -14.29380888 -4.4999028 0 0 Z M-395.8125 308.3125 C-401.17399311 315.40546681 -402.52443116 322.18843175 -401.375 330.9375 C-399.05562295 338.82562293 -394.3692147 343.79412238 -387.375 347.9375 C-380.46164572 350.7270991 -374.25718351 350.82668372 -367.3125 348.375 C-361.02451876 345.63730971 -357.00212459 341.64937432 -353.5 335.8125 C-350.35462995 327.7743321 -350.82553881 321.07182126 -354.25390625 313.23046875 C-357.44466195 306.70442834 -361.99790031 303.99099156 -368.375 300.9375 C-378.52819881 297.5531004 -388.63530692 300.48122774 -395.8125 308.3125 Z " fill="#6E7C4D" transform="translate(1229.375,165.0625)"/>
<path d="M0 0 C6.75792802 3.92470428 11.06956648 11.00060665 15.625 17.1875 C20.5131996 23.75790409 25.53366806 30.17387756 30.8125 36.4375 C31.24997559 36.95989258 31.68745117 37.48228516 32.13818359 38.02050781 C45.89086872 54.4166531 60.42758076 70.61925299 76.8125 84.4375 C77.69550781 85.20964844 78.57851563 85.98179687 79.48828125 86.77734375 C117.0118549 119.4057381 161.08823974 144.16410898 209.125 157.3125 C210.07592529 157.57442139 211.02685059 157.83634277 212.0065918 158.10620117 C228.78508313 162.48008739 246.01824589 164.8979049 263.21256447 166.92994499 C266.2485843 167.28967264 269.28326529 167.65930658 272.3177948 168.03138733 C280.92692563 169.08579088 289.53758804 170.12704236 298.15014648 171.15307617 C303.46796158 171.78729303 308.78388907 172.43575375 314.09894371 173.09268379 C316.09661215 173.33679177 318.09492859 173.57566592 320.09391212 173.80875969 C342.78554211 176.45715889 362.65686292 181.79762925 380.8125 196.4375 C381.65425781 197.11425781 382.49601562 197.79101562 383.36328125 198.48828125 C395.3659785 208.69897393 404.8965761 222.24548483 409.7421875 237.33203125 C410.61650936 239.61373632 410.61650936 239.61373632 412.8515625 240.29296875 C413.70492187 240.40253906 414.55828125 240.51210938 415.4375 240.625 C416.41847656 240.76679687 417.39945313 240.90859375 418.41015625 241.0546875 C420.85333422 241.32958008 423.29906029 241.58217022 425.74609375 241.8203125 C435.6651351 242.82071058 444.29803845 244.2350171 451.3125 251.9375 C457.88303252 260.03606334 456.27678657 270.20229205 455.29052734 279.92822266 C454.7207348 285.12837195 454.07909918 290.31836233 453.41381836 295.50708008 C452.99884335 298.75906418 452.6031143 302.01300927 452.20898438 305.26757812 C451.94645951 307.36212325 451.68282622 309.45652981 451.41796875 311.55078125 C451.30220993 312.51035233 451.18645111 313.4699234 451.06718445 314.45857239 C449.86618089 323.62530987 448.14539956 332.21662257 440.8125 338.4375 C430.63516911 345.38686937 417.79771513 342.50035157 406.34375 340.875 C405.1784375 340.730625 404.013125 340.58625 402.8125 340.4375 C401.91402344 340.32277344 401.01554688 340.20804688 400.08984375 340.08984375 C397.62733728 340.24254483 397.62733728 340.24254483 395.78515625 342.37890625 C394.83962891 343.67634766 394.83962891 343.67634766 393.875 345 C393.18277344 345.91652344 392.49054688 346.83304688 391.77734375 347.77734375 C391.12894531 348.65519531 390.48054688 349.53304688 389.8125 350.4375 C375.81509653 368.60123245 354.53560698 378.03685887 332.53125 381.9921875 C328.55691623 382.46810562 324.81007506 382.51709773 320.8125 382.4375 C320.83376009 383.28821044 320.83376009 383.28821044 320.85544968 384.15610695 C320.95470304 391.42899185 320.33695596 398.54534531 319.59082031 405.77490234 C319.39563309 407.72327751 319.39563309 407.72327751 319.19650269 409.71101379 C318.84181462 413.24676616 318.48052798 416.78181216 318.11721897 420.31668806 C317.8897233 422.53221896 317.66351224 424.7478774 317.43770599 426.96358109 C316.64767541 434.71328389 315.85165775 442.46234839 315.05078125 450.2109375 C314.30768752 457.40225304 313.57872183 464.5949083 312.85612416 471.78830945 C312.23225419 477.99178366 311.59776028 484.19411464 310.95531535 490.39569247 C310.57308237 494.08748816 310.19511575 497.7795938 309.82816315 501.47294235 C309.4179988 505.59740743 308.98577246 509.71928496 308.55175781 513.84130859 C308.43522858 515.04480453 308.31869934 516.24830048 308.19863892 517.48826599 C306.59721726 532.26842121 302.39331597 543.28063675 290.88671875 552.90234375 C276.67981376 563.41705874 260.13855809 560.98530697 243.73828125 558.5390625 C239.19535993 557.83852212 234.65645917 557.11526642 230.11871338 556.38201904 C227.44086872 555.95285888 224.76097317 555.53739614 222.08094501 555.12212563 C218.86149437 554.62197649 215.64366915 554.11165518 212.42578125 553.6015625 C210.6367614 553.32175034 210.6367614 553.32175034 208.81159973 553.0362854 C207.14782539 552.76623184 207.14782539 552.76623184 205.45043945 552.49072266 C203.9939373 552.25755844 203.9939373 552.25755844 202.50801086 552.01968384 C199.75198791 551.42443043 197.35589697 550.65391566 194.8125 549.4375 C193.86621094 547.49755859 193.86621094 547.49755859 193.8125 545.4375 C195.48433435 543.1249992 197.13413976 541.1422855 199.0625 539.0625 C200.1752892 537.81046779 201.28591324 536.55650836 202.39453125 535.30078125 C202.96381348 534.66092285 203.5330957 534.02106445 204.11962891 533.36181641 C218.27638628 517.26958081 223.93235017 502.42512713 226.5300293 481.0378418 C226.75014175 479.29398193 226.75014175 479.29398193 226.97470093 477.51489258 C227.45174056 473.72293427 227.91931293 469.92987549 228.38671875 466.13671875 C228.71814738 463.48721385 229.05010629 460.83778075 229.38276672 458.18843079 C230.16367564 451.95986001 230.93775823 445.7304614 231.70929605 439.50072366 C232.58910714 432.39952241 233.47667006 425.29929659 234.36483514 418.19913614 C236.18925564 403.61298302 238.00410182 389.02564847 239.8125 374.4375 C212.23300457 370.04338175 212.23300457 370.04338175 184.375 368.9375 C182.69059721 368.95656179 181.00618944 368.97518716 179.32177734 368.9934082 C106.04086673 370.08925408 33.66669265 397.2738393 -23.1875 443.4375 C-24.13367188 444.19289063 -25.07984375 444.94828125 -26.0546875 445.7265625 C-30.56903522 449.36555194 -34.96069511 453.09820241 -39.25 457 C-55.79607894 472.01793789 -55.79607894 472.01793789 -65.84375 471.75 C-71.42983426 471.00518876 -75.14566881 468.7464674 -78.625 464.375 C-83.67265137 454.88541543 -80.74504538 443.46948717 -79.44335938 433.25732422 C-79.25564367 431.74854455 -79.06846896 430.2396975 -78.88179016 428.73078918 C-78.37694827 424.66263108 -77.86460597 420.59544978 -77.35084724 416.52840948 C-76.8139226 412.26754642 -76.2839904 408.00581382 -75.7532959 403.74417114 C-74.74885183 395.68675179 -73.7381789 387.63012672 -72.72523069 379.57377255 C-71.57166589 370.39657032 -70.42510113 361.21849778 -69.27910519 352.04034781 C-66.92298973 333.17175735 -64.55814544 314.30427015 -62.1875 295.4375 C-63.00444336 295.24015259 -63.82138672 295.04280518 -64.66308594 294.83947754 C-65.73848633 294.57598511 -66.81388672 294.31249268 -67.921875 294.04101562 C-68.98631836 293.78179321 -70.05076172 293.5225708 -71.14746094 293.25549316 C-75.06106332 292.20244749 -78.58586754 290.77579886 -82.1875 288.9375 C-83.19478149 288.42473511 -83.19478149 288.42473511 -84.22241211 287.90161133 C-95.21301006 282.0139309 -103.39225887 273.50114216 -109.1875 262.4375 C-109.66960937 261.53773438 -110.15171875 260.63796875 -110.6484375 259.7109375 C-117.83901343 244.62319726 -117.46360909 227.31251772 -112.0625 211.75 C-106.1922568 197.59944307 -94.65514901 184.60182786 -80.32617188 178.66650391 C-71.34287041 175.28326947 -62.94398336 173.25367317 -53.3125 173.375 C-52.62414062 173.37951172 -51.93578125 173.38402344 -51.2265625 173.38867188 C-49.54683665 173.40033664 -47.86715625 173.41826729 -46.1875 173.4375 C-46.10939669 172.2833546 -46.10939669 172.2833546 -46.02971554 171.10589314 C-45.42323615 162.65599684 -44.50835357 154.27443771 -43.45336914 145.86987305 C-43.27888326 144.46226494 -43.10465075 143.05462541 -42.9306488 141.6469574 C-42.46242913 137.86595214 -41.99035184 134.08543859 -41.51724553 130.30504203 C-41.12102774 127.13649807 -40.72662034 123.96772973 -40.33215898 120.79896671 C-39.40146489 113.32321971 -38.46748736 105.84788795 -37.53149414 98.37280273 C-36.56835074 90.68036523 -35.61112279 82.98720753 -34.6567145 75.2936818 C-33.83389475 68.66275577 -33.00725205 62.03231376 -32.17759985 55.40223914 C-31.68348219 51.45316682 -31.19082251 47.50392679 -30.70192146 43.55420494 C-30.24255791 39.84436216 -29.77840748 36.13514858 -29.31064796 32.42635536 C-29.05966006 30.42693967 -28.81351126 28.42691836 -28.5675354 26.42687988 C-26.27027114 8.32281395 -26.27027114 8.32281395 -21.1875 2.4375 C-14.65971028 -2.32882266 -7.42285974 -3.26605829 0 0 Z " fill="#EFD242" transform="translate(330.1875,540.5625)"/>
<path d="M0 0 C1.18529297 0.04833984 1.18529297 0.04833984 2.39453125 0.09765625 C10.8275788 2.63346775 15.48567231 9.52099733 20 16.625 C20.60038086 17.55054687 21.20076172 18.47609375 21.81933594 19.4296875 C53.62048181 68.89438761 71.20479889 123.29097981 58.83056641 182.12695312 C57.06381353 189.84861567 54.87689442 197.48548306 52.1875 204.9375 C51.90495361 205.72310303 51.62240723 206.50870605 51.33129883 207.31811523 C49.14483954 212.82101785 46.69540387 215.88003085 41.875 219.25 C40.61762093 220.18242351 39.3611407 221.11606007 38.10546875 222.05078125 C37.45884277 222.52338379 36.8122168 222.99598633 36.14599609 223.48291016 C32.92115098 225.87802698 29.81013128 228.41151871 26.6875 230.9375 C21.89977337 234.78224567 17.08741584 238.59302034 12.25 242.375 C6.49871403 246.87430535 0.82743674 251.46641981 -4.8293457 256.08374023 C-9.87995384 260.19907333 -14.98013983 264.24621383 -20.12109375 268.24804688 C-22.69913919 270.25842051 -25.12881812 272.24738996 -27.4675293 274.53857422 C-31.22571402 277.65907557 -34.6739716 277.70665232 -39.41796875 277.7578125 C-40.2471431 277.7869725 -41.07631744 277.81613251 -41.93061829 277.84617615 C-43.70294394 277.90679327 -45.47564567 277.9571445 -47.24853516 277.99807739 C-51.87973147 278.1065119 -56.50786298 278.29213296 -61.13671875 278.47265625 C-62.05415863 278.50675095 -62.97159851 278.54084564 -63.9168396 278.57597351 C-74.7448802 279.00489851 -85.45457727 280.22060537 -96.19921875 281.60595703 C-100.06546819 282.09646215 -103.93804661 282.51723388 -107.8125 282.9375 C-105.793655 274.41477151 -103.3813152 266.08054455 -100.70703125 257.7421875 C-100.31110275 256.49748184 -99.91517426 255.25277618 -99.50724792 253.97035217 C-98.4394645 250.61388921 -97.36710601 247.25890509 -96.29376221 243.90421677 C-95.16005562 240.35827316 -94.03049956 236.81100748 -92.90039062 233.26391602 C-90.84563761 226.81689158 -88.78707398 220.37109179 -86.72654915 213.92591 C-85.02150913 208.59244702 -83.31926526 203.25809563 -81.61784363 197.92347717 C-66.42571721 150.29624709 -51.13025404 102.69780641 -35.51675415 55.20689392 C-33.722576 49.74119972 -31.95348868 44.2682236 -30.20709229 38.78707886 C-29.12901781 35.41023246 -28.03824492 32.03757199 -26.94506836 28.66558838 C-26.44928987 27.12564735 -25.95930613 25.58382569 -25.47583008 24.03997803 C-22.64117676 14.9956149 -20.1682078 7.85631059 -12.25 2.0625 C-8.06901786 0.13281594 -4.57033713 -0.18868364 0 0 Z " fill="#6E7C4D" transform="translate(952.8125,81.0625)"/>
<path d="M0 0 C-0.62202577 9.75993235 -1.67171919 19.43460353 -2.93701172 29.12963867 C-3.14578265 30.75241741 -3.34727613 32.37614888 -3.54150391 34.00073242 C-5.07165438 46.78327512 -7.11130617 58.51923605 -16.0625 68.375 C-17.01845629 69.44901664 -17.97417607 70.52324382 -18.9296875 71.59765625 C-19.4256543 72.14437988 -19.92162109 72.69110352 -20.43261719 73.25439453 C-23.24567079 76.38731248 -25.95763765 79.60718696 -28.6875 82.8125 C-29.7116304 84.00703297 -30.73631423 85.20109182 -31.76171875 86.39453125 C-32.50035156 87.25433594 -33.23898437 88.11414062 -34 89 C-45.167508 83.88353889 -50.39402298 73.92985897 -55 63 C-58.30840074 53.19610581 -58.61275305 42.52496911 -54.125 33.06640625 C-44.77866222 15.89900109 -27.65097019 7.56228802 -9.67578125 1.96484375 C-2.68459302 0 -2.68459302 0 0 0 Z " fill="#6F7D4E" transform="translate(547,989)"/>
<path d="M0 0 C5.59547806 2.78773519 10.31483708 6.42590002 15.1875 10.3125 C22.6960713 16.2372136 30.30182643 22.01094686 38.01049805 27.6730957 C53.3500168 39.05005039 53.3500168 39.05005039 55 44 C55.40434578 48.15232017 55.404652 51.86191625 54 55.8125 C50.60895828 59.52145188 46.87877954 61.53447245 41.8984375 62.33984375 C34.75812458 62.24896704 30.03550598 57.74523353 24.74560547 53.41259766 C22.25672976 51.39852285 19.70816472 49.46672182 17.15869141 47.53027344 C15.01518637 45.90154913 12.88054216 44.26166335 10.74609375 42.62109375 C7.30051996 39.98088333 3.82981766 37.37690196 0.34765625 34.78515625 C-0.60310791 34.07302979 -1.55387207 33.36090332 -2.53344727 32.62719727 C-4.39458379 31.23394333 -6.26079511 29.84743682 -8.13256836 28.46850586 C-8.98343018 27.82921143 -9.83429199 27.18991699 -10.7109375 26.53125 C-11.84474854 25.68916992 -11.84474854 25.68916992 -13.00146484 24.83007812 C-15.82477886 22.24474195 -17.7029355 19.53884764 -18.43359375 15.75390625 C-18.44321065 10.35882351 -17.70027853 7.20031617 -14 3 C-9.90473589 -0.51022638 -5.1880274 -1.03924208 0 0 Z " fill="#EFD242" transform="translate(138,599)"/>
<path d="M0 0 C3.76529366 2.3178085 6.21990361 4.13678528 7.79296875 8.30078125 C8.48139964 12.94768979 8.48159543 16.08346699 6.12792969 20.24414062 C3.55702781 23.6096458 1.7389401 24.7969046 -2.0625 26.5859375 C-2.66023727 26.86953629 -3.25797455 27.15313507 -3.87382507 27.44532776 C-12.32427739 31.38896868 -20.9451007 34.97238646 -29.56762695 38.51928711 C-32.5379171 39.74587372 -35.49819233 40.99483141 -38.45898438 42.24414062 C-40.3705197 43.03394288 -42.28261027 43.8224029 -44.1953125 44.609375 C-45.06738846 44.98114365 -45.93946442 45.35291229 -46.83796692 45.73594666 C-52.30883465 47.94893715 -57.28537783 49.21555802 -63.20703125 48.30078125 C-67.18834567 46.236396 -69.84396199 44.09519532 -72.20703125 40.30078125 C-72.67578125 37.71484375 -72.67578125 37.71484375 -72.70703125 34.92578125 C-72.73796875 34.01054688 -72.76890625 33.0953125 -72.80078125 32.15234375 C-71.96613637 28.14385188 -70.34865884 25.80503675 -67.20703125 23.30078125 C-63.17278226 21.09421579 -58.96942812 19.39075273 -54.70703125 17.67578125 C-53.47047225 17.16638762 -52.23447851 16.6556199 -50.99902344 16.14355469 C-48.40674653 15.07135247 -45.81086744 14.00850303 -43.21289062 12.95019531 C-39.85313461 11.57530188 -36.51479607 10.15534137 -33.18237305 8.71560669 C-30.57357282 7.58855221 -27.95985008 6.47320542 -25.34545898 5.35919189 C-23.49449921 4.56682078 -21.64855186 3.76277333 -19.80273438 2.95849609 C-7.28972477 -2.30948802 -7.28972477 -2.30948802 0 0 Z " fill="#EFD242" transform="translate(157.20703125,858.69921875)"/>
<path d="M0 0 C3.64650552 0.4812622 7.29573692 0.93577557 10.94580078 1.38916016 C13.27804341 1.69353446 15.61008312 1.99946854 17.94189453 2.30712891 C19.56853027 2.50583588 19.56853027 2.50583588 21.22802734 2.70855713 C28.24397258 3.67475254 32.76992586 4.89295712 37.50439453 10.41650391 C39.111258 14.43366257 39.2990956 17.96248136 38.62939453 22.22900391 C36.21381424 27.24597836 33.72617694 29.16715822 28.62939453 31.22900391 C25.38720703 31.40209961 25.38720703 31.40209961 21.75439453 31.09228516 C21.07513916 31.03671951 20.39588379 30.98115387 19.69604492 30.92390442 C17.33718628 30.71859165 14.98400529 30.47831361 12.62939453 30.22900391 C11.7330127 30.1348822 10.83663086 30.0407605 9.91308594 29.94378662 C3.86117842 29.29354002 -2.1798205 28.57069504 -8.21875 27.80981445 C-11.39150927 27.41389538 -14.56636656 27.0391961 -17.74169922 26.66455078 C-19.78483013 26.40998958 -21.82780538 26.15417513 -23.87060547 25.89697266 C-25.27548218 25.73578194 -25.27548218 25.73578194 -26.70874023 25.57133484 C-33.35198575 24.69978903 -39.17301696 23.01400035 -44.30810547 18.54150391 C-46.54475105 13.67351059 -46.94135618 9.00840319 -45.30810547 3.91650391 C-36.00900607 -8.98224687 -13.51360986 -1.79777471 0 0 Z " fill="#EFD242" transform="translate(108.37060546875,737.77099609375)"/>
</svg>
